# Blender 4.2.1 LTS
# www.blender.org
mtllib Hex.mtl
o Circle
v -0.000000 -0.250000 0.000000
v -0.000000 0.250000 0.000000
v -0.000000 0.250000 -1.384530
v -0.000000 0.150000 -1.500000
v -1.299038 0.150000 -0.750000
v -1.199038 0.250000 -0.692265
v -1.299038 0.150000 0.750000
v -1.199038 0.250000 0.692265
v -0.000000 0.150000 1.500000
v -0.000000 0.250000 1.384530
v 1.299038 0.150000 0.750000
v 1.199038 0.250000 0.692265
v 1.299038 0.150000 -0.750000
v 1.199038 0.250000 -0.692265
v -0.000000 -0.150000 -1.500000
v -0.000000 -0.250000 -1.384530
v -1.199038 -0.250000 -0.692265
v -1.299038 -0.150000 -0.750000
v -1.199038 -0.250000 0.692265
v -1.299038 -0.150000 0.750000
v -0.000000 -0.250000 1.384530
v -0.000000 -0.150000 1.500000
v 1.199038 -0.250000 0.692265
v 1.299038 -0.150000 0.750000
v 1.199038 -0.250000 -0.692265
v 1.299038 -0.150000 -0.750000
vn -0.0000 -1.0000 -0.0000
vn -1.0000 -0.0000 -0.0000
vn -0.5000 -0.0000 0.8660
vn 0.5000 -0.0000 0.8660
vn 1.0000 -0.0000 -0.0000
vn 0.5000 -0.0000 -0.8660
vn -0.0000 1.0000 -0.0000
vn -0.3536 0.7071 -0.6124
vn -0.7071 0.7071 -0.0000
vn -0.3536 0.7071 0.6124
vn 0.3536 0.7071 0.6124
vn 0.7071 0.7071 -0.0000
vn 0.3536 0.7071 -0.6124
vn -0.3536 -0.7071 -0.6124
vn -0.7071 -0.7071 -0.0000
vn -0.3536 -0.7071 0.6124
vn 0.3536 -0.7071 0.6124
vn 0.7071 -0.7071 -0.0000
vn 0.3536 -0.7071 -0.6124
vn -0.5000 -0.0000 -0.8660
vt 0.866375 0.999772
vt 0.634355 0.865815
vt 0.866375 0.731858
vt 0.322129 0.347702
vt 0.544474 0.152298
vt 0.573500 0.202573
vt 0.033261 0.347702
vt 0.255606 0.152298
vt 0.284632 0.202573
vt 0.833342 0.152298
vt 0.610997 0.347702
vt 0.581971 0.297428
vt 0.255606 0.652298
vt 0.033261 0.847702
vt 0.004235 0.797428
vt 0.610997 0.847702
vt 0.833342 0.652298
vt 0.862368 0.702573
vt 0.577963 0.500228
vt 0.809984 0.634185
vt 0.577963 0.768142
vt 0.288640 0.499772
vt 0.056619 0.365815
vt 0.288640 0.231858
vt 0.577963 0.000228
vt 0.809984 0.134185
vt 0.577963 0.268142
vt 0.000228 0.500228
vt 0.232248 0.634185
vt 0.000228 0.768142
vt 0.577508 0.499772
vt 0.345487 0.365815
vt 0.577508 0.231858
vt 0.000228 0.000228
vt 0.232248 0.134185
vt 0.000228 0.268142
vt 0.289095 0.000228
vt 0.521116 0.134185
vt 0.289095 0.268142
vt 0.289096 0.500228
vt 0.521116 0.634185
vt 0.289095 0.768142
vt 0.288640 0.999772
vt 0.056619 0.865815
vt 0.288640 0.731858
vt 0.866375 0.499772
vt 0.634355 0.365815
vt 0.866375 0.231858
vt 0.544474 0.652298
vt 0.293103 0.797428
vt 0.293103 0.297427
vt 0.004235 0.297427
vt 0.862368 0.202573
vt 0.284632 0.702573
vt 0.581971 0.797427
vt 0.577508 0.999772
vt 0.345487 0.865815
vt 0.577508 0.731858
vt 0.573500 0.702573
vt 0.322129 0.847702
s 0
usemtl Red
f 1/1/1 16/2/1 25/3/1
f 15/16/6 13/17/6 26/18/6
f 2/19/7 14/20/7 3/21/7
f 14/20/13 4/55/13 3/21/13
f 15/16/19 25/3/19 16/2/19
f 15/16/6 4/55/6 13/17/6
f 14/20/13 13/17/13 4/55/13
f 15/16/19 26/18/19 25/3/19
usemtl Orange
f 26/13/5 11/14/5 24/15/5
f 1/28/1 25/29/1 23/30/1
f 2/43/7 12/44/7 14/45/7
f 12/44/12 13/54/12 14/45/12
f 24/15/18 25/29/18 26/13/18
f 26/13/5 13/54/5 11/14/5
f 12/44/12 11/14/12 13/54/12
f 24/15/18 23/30/18 25/29/18
usemtl Yellow
f 24/10/4 9/11/4 22/12/4
f 1/25/1 23/26/1 21/27/1
f 2/46/7 10/47/7 12/48/7
f 12/48/11 9/11/11 11/53/11
f 22/12/17 23/26/17 24/10/17
f 24/10/4 11/53/4 9/11/4
f 12/48/11 10/47/11 9/11/11
f 22/12/17 21/27/17 23/26/17
usemtl Green
f 22/7/3 7/8/3 20/9/3
f 1/22/1 21/23/1 19/24/1
f 2/34/7 8/35/7 10/36/7
f 8/35/10 9/52/10 10/36/10
f 22/7/16 19/24/16 21/23/16
f 22/7/3 9/52/3 7/8/3
f 8/35/10 7/8/10 9/52/10
f 22/7/16 20/9/16 19/24/16
usemtl Blue
f 20/4/2 5/5/2 18/6/2
f 1/31/1 19/32/1 17/33/1
f 2/37/7 6/38/7 8/39/7
f 6/38/9 7/51/9 8/39/9
f 18/6/15 19/32/15 20/4/15
f 20/4/2 7/51/2 5/5/2
f 6/38/9 5/5/9 7/51/9
f 18/6/15 17/33/15 19/32/15
usemtl Purple
f 2/40/7 3/41/7 6/42/7
f 6/42/8 4/49/8 5/50/8
f 1/56/1 17/57/1 16/58/1
f 15/59/14 17/57/14 18/60/14
f 18/60/20 4/49/20 15/59/20
f 6/42/8 3/41/8 4/49/8
f 15/59/14 16/58/14 17/57/14
f 18/60/20 5/50/20 4/49/20
