# Blender 4.2.1 LTS
# www.blender.org
mtllib Icosahedron.mtl
o Solid
v 1.665619 0.093417 -0.878257
v 1.665619 -0.093417 -0.878257
v 1.572202 -0.151152 -1.029409
v 1.514467 0.000000 -1.122827
v 1.572202 0.151152 -1.029409
v -1.514467 -0.000000 -1.122827
v -1.572202 -0.151152 -1.029409
v -1.665619 -0.093417 -0.878257
v -1.665619 0.093417 -0.878257
v -1.572202 0.151152 -1.029409
v 1.514467 -0.000000 1.122827
v 1.572202 -0.151152 1.029409
v 1.665619 -0.093417 0.878257
v 1.665619 0.093417 0.878257
v 1.572202 0.151152 1.029409
v -1.665619 0.093417 0.878257
v -1.665619 -0.093417 0.878257
v -1.572202 -0.151152 1.029409
v -1.514467 0.000000 1.122827
v -1.572202 0.151152 1.029409
v 1.122827 1.514467 -0.000000
v 1.029409 1.572202 -0.151152
v 0.878257 1.665619 -0.093417
v 0.878257 1.665619 0.093417
v 1.029409 1.572202 0.151152
v 1.122827 -1.514467 0.000000
v 1.029409 -1.572202 0.151152
v 0.878257 -1.665619 0.093417
v 0.878257 -1.665619 -0.093417
v 1.029409 -1.572202 -0.151152
v -1.122827 1.514467 0.000000
v -1.029409 1.572202 0.151152
v -0.878257 1.665619 0.093417
v -0.878257 1.665619 -0.093417
v -1.029409 1.572202 -0.151152
v -1.122827 -1.514467 -0.000000
v -1.029409 -1.572202 -0.151152
v -0.878257 -1.665619 -0.093417
v -0.878257 -1.665619 0.093417
v -1.029409 -1.572202 0.151152
v 0.093417 0.878257 -1.665619
v -0.093417 0.878257 -1.665619
v -0.151152 1.029409 -1.572202
v 0.000000 1.122827 -1.514467
v 0.151152 1.029409 -1.572202
v 0.093417 0.878257 1.665619
v 0.151152 1.029409 1.572202
v -0.000000 1.122827 1.514467
v -0.151152 1.029409 1.572202
v -0.093417 0.878257 1.665619
v 0.093417 -0.878257 -1.665619
v 0.151152 -1.029409 -1.572202
v -0.000000 -1.122827 -1.514467
v -0.151152 -1.029409 -1.572202
v -0.093417 -0.878257 -1.665619
v 0.093417 -0.878257 1.665619
v -0.093417 -0.878257 1.665619
v -0.151152 -1.029409 1.572202
v 0.000000 -1.122827 1.514467
v 0.151152 -1.029409 1.572202
vn 0.3568 -0.0000 -0.9342
vn 0.9342 -0.3568 -0.0000
vn 0.5774 -0.5774 0.5774
vn -0.5774 0.5774 0.5774
vn -0.9342 -0.3568 -0.0000
vn -0.9342 0.3568 -0.0000
vn -0.3568 -0.0000 0.9342
vn -0.0000 0.9342 -0.3568
vn 0.5774 -0.5774 -0.5774
vn -0.5774 0.5774 -0.5774
vn 0.5774 0.5774 0.5774
vn -0.5774 -0.5774 0.5774
vn 0.5774 0.5774 -0.5774
vn -0.3568 -0.0000 -0.9342
vn 0.3568 -0.0000 0.9342
vn -0.5774 -0.5774 -0.5774
vn -0.0000 0.9342 0.3568
vn -0.0000 -0.9342 -0.3568
vn -0.0000 -0.9342 0.3568
vn 0.8506 -0.0000 -0.5257
vn -0.8507 -0.0000 -0.5257
vn 0.8507 -0.0000 0.5257
vn -0.8507 -0.0000 0.5257
vn 0.5257 0.8507 -0.0000
vn 0.5257 -0.8507 -0.0000
vn -0.5257 0.8507 -0.0000
vn -0.5257 -0.8507 -0.0000
vn -0.0000 0.5257 -0.8507
vn -0.0000 0.5257 0.8507
vn -0.0000 -0.5257 -0.8507
vn -0.0000 -0.5257 0.8506
vn 0.8090 0.5000 -0.3090
vn 0.5000 0.3090 -0.8090
vn 0.3090 0.8090 -0.5000
vn 0.5000 -0.3090 -0.8090
vn 0.8090 -0.5000 -0.3090
vn 0.3090 -0.8090 -0.5000
vn 0.5000 0.3090 0.8090
vn 0.8090 0.5000 0.3090
vn 0.3090 0.8090 0.5000
vn 0.8090 -0.5000 0.3090
vn 0.5000 -0.3090 0.8090
vn 0.3090 -0.8090 0.5000
vn -0.5000 0.3090 -0.8090
vn -0.8090 0.5000 -0.3090
vn -0.3090 0.8090 -0.5000
vn -0.8090 -0.5000 -0.3090
vn -0.5000 -0.3090 -0.8090
vn -0.3090 -0.8090 -0.5000
vn -0.8090 0.5000 0.3090
vn -0.5000 0.3090 0.8090
vn -0.3090 0.8090 0.5000
vn -0.5000 -0.3090 0.8090
vn -0.8090 -0.5000 0.3090
vn -0.3090 -0.8090 0.5000
vn -0.0000 -0.0000 -1.0000
vn -0.0000 -0.0000 1.0000
vn 1.0000 -0.0000 -0.0000
vn -1.0000 -0.0000 -0.0000
vn -0.0000 1.0000 -0.0000
vn -0.0000 -1.0000 -0.0000
vn 0.9342 0.3568 -0.0000
vn 0.8507 -0.0000 -0.5257
vn 0.5257 0.8506 -0.0000
vn 0.5257 -0.8506 -0.0000
vn -0.5257 0.8506 -0.0000
vn -0.5257 -0.8506 -0.0000
vn -0.0000 0.5257 0.8506
vn -0.0000 -0.5257 0.8507
vt 0.000738 0.000738
vt 0.086145 0.086145
vt 0.000738 0.171552
vt 0.087622 0.000738
vt 0.173029 0.086145
vt 0.087622 0.171552
vt 0.174505 0.000738
vt 0.259912 0.086145
vt 0.174505 0.171552
vt 0.000738 0.173029
vt 0.086145 0.258435
vt 0.000738 0.343842
vt 0.087622 0.173029
vt 0.173029 0.258435
vt 0.087622 0.343842
vt 0.174505 0.173029
vt 0.259912 0.258435
vt 0.174505 0.343842
vt 0.261389 0.000738
vt 0.346796 0.086145
vt 0.261389 0.171552
vt 0.261389 0.173029
vt 0.346796 0.258435
vt 0.261389 0.343842
vt 0.348272 0.000738
vt 0.433679 0.086145
vt 0.348272 0.171552
vt 0.348272 0.173029
vt 0.433679 0.258435
vt 0.348272 0.343842
vt 0.000738 0.345319
vt 0.086145 0.430726
vt 0.000738 0.516132
vt 0.087622 0.345319
vt 0.173029 0.430726
vt 0.087622 0.516132
vt 0.174505 0.345319
vt 0.259912 0.430726
vt 0.174505 0.516132
vt 0.261389 0.345319
vt 0.346796 0.430726
vt 0.261389 0.516133
vt 0.348272 0.345319
vt 0.433679 0.430726
vt 0.348272 0.516133
vt 0.435156 0.000738
vt 0.520563 0.086145
vt 0.435156 0.171552
vt 0.435156 0.173029
vt 0.520563 0.258435
vt 0.435156 0.343842
vt 0.435156 0.345319
vt 0.520563 0.430726
vt 0.435156 0.516133
vt 0.522039 0.000738
vt 0.607446 0.086145
vt 0.522039 0.171552
vt 0.924079 0.632481
vt 0.924079 0.517609
vt 0.856560 0.539548
vt 0.924079 0.754741
vt 0.965809 0.697305
vt 0.924079 0.639869
vt 0.924079 0.871090
vt 0.965809 0.813654
vt 0.924079 0.756218
vt 0.924079 0.987439
vt 0.924079 0.872567
vt 0.856559 0.894505
vt 0.956340 0.460191
vt 0.998070 0.402755
vt 0.956340 0.345319
vt 0.068258 0.999262
vt 0.109988 0.941826
vt 0.068258 0.884390
vt 0.178985 0.999262
vt 0.220714 0.941826
vt 0.178985 0.884390
vt 0.289711 0.999262
vt 0.331441 0.941826
vt 0.289711 0.884390
vt 0.400438 0.999262
vt 0.400438 0.884390
vt 0.332917 0.906328
vt 0.511164 0.999262
vt 0.552893 0.941826
vt 0.511164 0.884390
vt 0.621890 0.999262
vt 0.663620 0.941826
vt 0.621890 0.884390
vt 0.732617 0.999262
vt 0.732617 0.884390
vt 0.665097 0.906328
vt 0.000738 0.638393
vt 0.121522 0.517609
vt 0.121522 0.638393
vt 0.122998 0.638393
vt 0.243782 0.517609
vt 0.243782 0.638393
vt 0.245259 0.517609
vt 0.366042 0.638393
vt 0.245259 0.638393
vt 0.367519 0.517609
vt 0.488302 0.638393
vt 0.367519 0.638393
vt 0.489779 0.517609
vt 0.610562 0.638393
vt 0.489779 0.638393
vt 0.522039 0.345319
vt 0.642823 0.466102
vt 0.522039 0.466102
vt 0.608923 0.000738
vt 0.729706 0.121522
vt 0.608923 0.121522
vt 0.608923 0.122998
vt 0.729706 0.243782
vt 0.608923 0.243782
vt 0.612039 0.517609
vt 0.732823 0.638393
vt 0.612039 0.638393
vt 0.000738 0.760653
vt 0.121522 0.639869
vt 0.121522 0.760653
vt 0.122998 0.760653
vt 0.243782 0.639869
vt 0.243782 0.760653
vt 0.245259 0.639869
vt 0.366042 0.760653
vt 0.245259 0.760653
vt 0.367519 0.760653
vt 0.488302 0.639869
vt 0.488302 0.760653
vt 0.489779 0.639869
vt 0.610562 0.760653
vt 0.489779 0.760653
vt 0.612039 0.639869
vt 0.732823 0.760653
vt 0.612039 0.760653
vt 0.644300 0.466102
vt 0.765083 0.345319
vt 0.765083 0.466102
vt 0.731183 0.121522
vt 0.851966 0.000738
vt 0.851966 0.121522
vt 0.731183 0.122998
vt 0.851966 0.243782
vt 0.731183 0.243782
vt 0.734299 0.638393
vt 0.855083 0.517609
vt 0.855083 0.638393
vt 0.734299 0.760653
vt 0.855083 0.639869
vt 0.855083 0.760653
vt 0.000738 0.762130
vt 0.121522 0.882913
vt 0.000738 0.882913
vt 0.122998 0.882913
vt 0.243782 0.762130
vt 0.243782 0.882913
vt 0.245259 0.762130
vt 0.366042 0.882913
vt 0.245259 0.882913
vt 0.367519 0.762130
vt 0.488302 0.882913
vt 0.367519 0.882913
vt 0.489779 0.762130
vt 0.610562 0.882913
vt 0.489779 0.882913
vt 0.612039 0.762130
vt 0.732823 0.882913
vt 0.612039 0.882913
vt 0.734299 0.762130
vt 0.855083 0.882913
vt 0.734299 0.882913
vt 0.766560 0.345319
vt 0.887343 0.466102
vt 0.766560 0.466102
vt 0.853443 0.000738
vt 0.974227 0.121522
vt 0.853443 0.121522
vt 0.853443 0.122998
vt 0.974227 0.243782
vt 0.853443 0.243782
vt 0.522039 0.173029
vt 0.607446 0.258435
vt 0.522039 0.343842
vt 0.856560 0.610543
vt 0.965809 0.575045
vt 0.856559 0.661808
vt 0.856559 0.732803
vt 0.856559 0.778157
vt 0.856559 0.849151
vt 0.856559 0.965500
vt 0.965809 0.930003
vt 0.888820 0.367258
vt 0.888820 0.438252
vt 0.000738 0.906328
vt 0.000738 0.977323
vt 0.111465 0.906328
vt 0.111465 0.977323
vt 0.222191 0.906328
vt 0.222191 0.977323
vt 0.332918 0.977323
vt 0.442167 0.941826
vt 0.443644 0.906328
vt 0.443644 0.977323
vt 0.554370 0.906328
vt 0.554370 0.977323
vt 0.665097 0.977323
vt 0.774346 0.941826
vt 0.000738 0.517609
vt 0.122998 0.517609
vt 0.366042 0.517609
vt 0.488302 0.517609
vt 0.610562 0.517609
vt 0.642823 0.345319
vt 0.729706 0.000738
vt 0.729706 0.122998
vt 0.732823 0.517609
vt 0.000738 0.639869
vt 0.122998 0.639869
vt 0.366042 0.639869
vt 0.367519 0.639869
vt 0.610562 0.639869
vt 0.732823 0.639869
vt 0.644300 0.345319
vt 0.731183 0.000738
vt 0.851966 0.122998
vt 0.734299 0.517609
vt 0.734299 0.639869
vt 0.121522 0.762130
vt 0.122998 0.762130
vt 0.366042 0.762130
vt 0.488302 0.762130
vt 0.610562 0.762130
vt 0.732823 0.762130
vt 0.855083 0.762130
vt 0.887343 0.345319
vt 0.974227 0.000738
vt 0.974227 0.122998
s 0
usemtl Material
f 4/1/1 51/2/1 41/3/1
f 26/4/2 2/5/2 13/6/2
f 12/7/3 60/8/3 27/9/3
f 20/10/4 49/11/4 32/12/4
f 36/13/5 17/14/5 8/15/5
f 31/16/6 9/17/6 16/18/6
f 19/19/7 57/20/7 50/21/7
f 44/22/8 34/23/8 23/24/8
f 3/25/9 30/26/9 52/27/9
f 10/28/10 35/29/10 43/30/10
f 15/31/11 25/32/11 47/33/11
f 18/34/12 40/35/12 58/36/12
f 5/37/13 45/38/13 22/39/13
f 6/40/14 42/41/14 55/42/14
f 11/43/15 46/44/15 56/45/15
f 7/46/16 54/47/16 37/48/16
f 48/49/17 24/50/17 33/51/17
f 53/52/18 29/53/18 38/54/18
f 59/55/19 39/56/19 28/57/19
f 21/184/62 14/185/62 1/186/62
usemtl Outline
f 2/58/20 4/59/20 5/60/20
f 7/61/21 8/62/21 9/63/21
f 12/64/22 13/65/22 14/66/22
f 17/67/23 19/68/23 20/69/23
f 22/70/24 23/71/24 24/72/24
f 27/73/25 28/74/25 29/75/25
f 32/76/26 33/77/26 34/78/26
f 37/79/27 38/80/27 39/81/27
f 42/82/28 44/83/28 45/84/28
f 47/85/29 48/86/29 49/87/29
f 52/88/30 53/89/30 54/90/30
f 57/91/31 59/92/31 60/93/31
f 5/94/32 21/95/32 1/96/32
f 4/97/33 45/98/33 5/99/33
f 45/100/34 23/101/34 22/102/34
f 52/103/35 4/104/35 3/105/35
f 26/106/36 3/107/36 2/108/36
f 53/109/37 30/110/37 29/111/37
f 47/112/38 11/113/38 15/114/38
f 21/115/39 15/116/39 14/117/39
f 48/118/40 25/119/40 24/120/40
f 12/121/41 26/122/41 13/123/41
f 11/124/42 60/125/42 12/126/42
f 60/127/43 28/128/43 27/129/43
f 10/130/44 42/131/44 6/132/44
f 31/133/45 10/134/45 9/135/45
f 44/136/46 35/137/46 34/138/46
f 7/139/47 36/140/47 8/141/47
f 6/142/48 54/143/48 7/144/48
f 54/145/49 38/146/49 37/147/49
f 20/148/50 31/149/50 16/150/50
f 19/151/51 49/152/51 20/153/51
f 49/154/52 33/155/52 32/156/52
f 18/157/53 57/158/53 19/159/53
f 36/160/54 18/161/54 17/162/54
f 59/163/55 40/164/55 39/165/55
f 51/166/56 42/167/56 41/168/56
f 57/169/57 46/170/57 50/171/57
f 14/172/58 2/173/58 1/174/58
f 17/175/59 9/176/59 8/177/59
f 34/178/60 24/179/60 23/180/60
f 39/181/61 29/182/61 28/183/61
f 5/60/63 1/187/63 2/58/63
f 2/58/63 3/188/63 4/59/63
f 10/189/21 6/190/21 9/63/21
f 6/190/21 7/61/21 9/63/21
f 15/191/22 11/192/22 14/66/22
f 11/192/22 12/64/22 14/66/22
f 20/69/23 16/193/23 17/67/23
f 17/67/23 18/194/23 19/68/23
f 25/195/64 21/196/64 24/72/64
f 21/196/24 22/70/24 24/72/24
f 30/197/65 26/198/65 29/75/65
f 26/198/25 27/73/25 29/75/25
f 35/199/66 31/200/66 34/78/66
f 31/200/26 32/76/26 34/78/26
f 40/201/67 36/202/67 39/81/67
f 36/202/27 37/79/27 39/81/27
f 45/84/28 41/203/28 42/82/28
f 42/82/28 43/204/28 44/83/28
f 50/205/29 46/206/29 49/87/29
f 46/206/68 47/85/68 49/87/68
f 55/207/30 51/208/30 54/90/30
f 51/208/30 52/88/30 54/90/30
f 60/93/69 56/209/69 57/91/69
f 57/91/69 58/210/69 59/92/69
f 5/94/32 22/211/32 21/95/32
f 4/97/33 41/212/33 45/98/33
f 45/100/34 44/213/34 23/101/34
f 52/103/35 51/214/35 4/104/35
f 26/106/36 30/215/36 3/107/36
f 53/109/37 52/216/37 30/110/37
f 47/112/38 46/217/38 11/113/38
f 21/115/39 25/218/39 15/116/39
f 48/118/40 47/219/40 25/119/40
f 12/121/41 27/220/41 26/122/41
f 11/124/42 56/221/42 60/125/42
f 60/127/43 59/222/43 28/128/43
f 10/130/44 43/223/44 42/131/44
f 31/133/45 35/224/45 10/134/45
f 44/136/46 43/225/46 35/137/46
f 7/139/47 37/226/47 36/140/47
f 6/142/48 55/227/48 54/143/48
f 54/145/49 53/228/49 38/146/49
f 20/148/50 32/229/50 31/149/50
f 19/151/51 50/230/51 49/152/51
f 49/154/52 48/231/52 33/155/52
f 18/157/53 58/232/53 57/158/53
f 36/160/54 40/233/54 18/161/54
f 59/163/55 58/234/55 40/164/55
f 51/166/56 55/235/56 42/167/56
f 57/169/57 56/236/57 46/170/57
f 14/172/58 13/237/58 2/173/58
f 17/175/59 16/238/59 9/176/59
f 34/178/60 33/239/60 24/179/60
f 39/181/61 38/240/61 29/182/61
