# Blender 4.2.1 LTS
# www.blender.org
mtllib Star.mtl
o Circle
v 0.000000 -0.250000 -0.000000
v 0.000000 0.250000 -0.000000
v -0.066385 -0.100000 -0.865490
v 0.000000 -0.250000 -0.661067
v 0.066385 -0.100000 -0.865490
v -0.046941 -0.206066 -0.791136
v 0.000000 -0.186603 -0.871524
v 0.046941 -0.206066 -0.791136
v -0.000000 -0.100000 -0.935685
v -0.227508 -0.100000 -0.539019
v -0.442334 -0.100000 -0.382939
v -0.194283 -0.250000 -0.267407
v -0.317926 -0.100000 -0.437588
v -0.292613 -0.186604 -0.402747
v -0.322775 -0.206066 -0.355916
v -0.238753 -0.206066 -0.416962
v -0.802615 -0.100000 -0.330587
v -0.843644 -0.100000 -0.204315
v -0.628712 -0.250000 -0.204281
v -0.889889 -0.100000 -0.289143
v -0.828869 -0.186603 -0.269316
v -0.766921 -0.206066 -0.199831
v -0.737910 -0.206066 -0.289118
v -0.582941 -0.100000 0.049807
v -0.500885 -0.100000 0.302350
v -0.314356 -0.250000 0.102141
v -0.514416 -0.100000 0.167144
v -0.473457 -0.186604 0.153836
v -0.438240 -0.206066 0.196994
v -0.470333 -0.206066 0.098220
v -0.562428 -0.100000 0.661176
v -0.455016 -0.100000 0.739216
v -0.388566 -0.250000 0.534815
v -0.549982 -0.100000 0.756985
v -0.512269 -0.186603 0.705078
v -0.427042 -0.206066 0.667634
v -0.502995 -0.206066 0.612451
v -0.132770 -0.100000 0.569801
v 0.132770 -0.100000 0.569801
v 0.000000 -0.250000 0.330534
v 0.000000 -0.100000 0.540889
v -0.000000 -0.186604 0.497822
v 0.051929 -0.206066 0.477665
v -0.051929 -0.206066 0.477665
v 0.455016 -0.100000 0.739216
v 0.562428 -0.100000 0.661176
v 0.388566 -0.250000 0.534815
v 0.549982 -0.100000 0.756985
v 0.512269 -0.186603 0.705078
v 0.502995 -0.206066 0.612451
v 0.427042 -0.206066 0.667634
v 0.500885 -0.100000 0.302350
v 0.582941 -0.100000 0.049807
v 0.314356 -0.250000 0.102141
v 0.514416 -0.100000 0.167144
v 0.473457 -0.186604 0.153836
v 0.470333 -0.206066 0.098220
v 0.438240 -0.206066 0.196994
v 0.843644 -0.100000 -0.204315
v 0.802615 -0.100000 -0.330587
v 0.628712 -0.250000 -0.204281
v 0.889889 -0.100000 -0.289143
v 0.828869 -0.186603 -0.269316
v 0.737910 -0.206066 -0.289118
v 0.766921 -0.206066 -0.199831
v 0.442334 -0.100000 -0.382939
v 0.227508 -0.100000 -0.539019
v 0.194283 -0.250000 -0.267407
v 0.317926 -0.100000 -0.437588
v 0.292613 -0.186604 -0.402747
v 0.238753 -0.206066 -0.416962
v 0.322776 -0.206066 -0.355916
v -0.500885 0.100000 0.302350
v -0.582941 0.100000 0.049807
v -0.314356 0.250000 0.102141
v -0.514416 0.100000 0.167144
v -0.473457 0.186604 0.153836
v -0.470333 0.206066 0.098220
v -0.438240 0.206066 0.196994
v -0.843644 0.100000 -0.204315
v -0.802615 0.100000 -0.330587
v -0.628712 0.250000 -0.204281
v -0.889889 0.100000 -0.289143
v -0.828869 0.186602 -0.269316
v -0.737910 0.206066 -0.289118
v -0.766921 0.206066 -0.199831
v -0.442334 0.100000 -0.382939
v -0.227508 0.100000 -0.539019
v -0.194283 0.250000 -0.267407
v -0.317926 0.100000 -0.437588
v -0.292613 0.186604 -0.402747
v -0.238753 0.206066 -0.416962
v -0.322775 0.206066 -0.355916
v -0.066385 0.100000 -0.865490
v 0.066385 0.100000 -0.865490
v -0.000000 0.250000 -0.661067
v 0.000000 0.100000 -0.935685
v 0.000000 0.186603 -0.871524
v 0.046941 0.206066 -0.791136
v -0.046941 0.206066 -0.791136
v -0.562428 0.100000 0.661176
v -0.388566 0.250000 0.534815
v -0.455016 0.100000 0.739216
v -0.502995 0.206066 0.612451
v -0.512269 0.186603 0.705078
v -0.427042 0.206066 0.667634
v -0.549982 0.100000 0.756985
v -0.132770 0.100000 0.569801
v 0.000000 0.250000 0.330534
v 0.132770 0.100000 0.569801
v -0.051929 0.206066 0.477665
v -0.000000 0.186604 0.497822
v 0.051929 0.206066 0.477665
v -0.000000 0.100000 0.540889
v 0.455016 0.100000 0.739216
v 0.388566 0.250000 0.534815
v 0.562428 0.100000 0.661176
v 0.427042 0.206066 0.667634
v 0.512269 0.186603 0.705078
v 0.502995 0.206066 0.612451
v 0.549982 0.100000 0.756985
v 0.500885 0.100000 0.302350
v 0.314356 0.250000 0.102141
v 0.582941 0.100000 0.049807
v 0.438240 0.206066 0.196994
v 0.473457 0.186604 0.153836
v 0.470333 0.206066 0.098220
v 0.514416 0.100000 0.167144
v 0.843644 0.100000 -0.204315
v 0.628712 0.250000 -0.204281
v 0.802615 0.100000 -0.330587
v 0.766921 0.206066 -0.199831
v 0.828869 0.186603 -0.269316
v 0.737910 0.206066 -0.289118
v 0.889889 0.100000 -0.289143
v 0.442334 0.100000 -0.382939
v 0.194283 0.250000 -0.267407
v 0.227508 0.100000 -0.539019
v 0.322775 0.206066 -0.355916
v 0.292613 0.186604 -0.402747
v 0.238753 0.206066 -0.416962
v 0.317926 0.100000 -0.437588
vn -0.0000 -1.0000 -0.0000
vn -0.0000 1.0000 -0.0000
vn -0.7963 -0.2311 -0.5590
vn -0.0000 -0.9842 -0.1773
vn 0.7963 -0.2311 -0.5590
vn -0.4770 -0.7889 -0.3873
vn -0.0000 -0.7507 -0.6606
vn 0.4770 -0.7889 -0.3873
vn -0.0000 -0.2771 -0.9608
vn -0.8198 -0.2366 -0.5214
vn -0.2426 -0.2366 -0.9408
vn -0.0679 -0.9933 -0.0935
vn -0.5615 -0.2957 -0.7728
vn -0.4915 -0.5483 -0.6765
vn -0.2369 -0.8030 -0.5469
vn -0.4470 -0.8030 -0.3943
vn -0.2856 -0.2311 -0.9301
vn -0.7777 -0.2311 0.5846
vn -0.1686 -0.9842 -0.0548
vn -0.9138 -0.2771 -0.2969
vn -0.6283 -0.7507 -0.2041
vn -0.5157 -0.7889 0.3340
vn -0.2209 -0.7889 -0.5734
vn -0.7493 -0.2366 0.6186
vn -0.9697 -0.2366 -0.0600
vn -0.1099 -0.9933 0.0357
vn -0.9085 -0.2957 0.2952
vn -0.7953 -0.5483 0.2584
vn -0.5933 -0.8030 0.0563
vn -0.5131 -0.8030 0.3032
vn -0.9728 -0.2311 -0.0158
vn 0.3157 -0.2311 0.9203
vn -0.1042 -0.9842 0.1434
vn -0.5648 -0.2771 0.7773
vn -0.3883 -0.7507 0.5345
vn 0.1583 -0.7889 0.5937
vn -0.6136 -0.7889 0.0329
vn 0.3568 -0.2366 0.9037
vn -0.3568 -0.2366 0.9037
vn -0.0000 -0.9933 0.1155
vn -0.0000 -0.2957 0.9553
vn -0.0000 -0.5483 0.8363
vn -0.1298 -0.8030 0.5817
vn 0.1298 -0.8030 0.5817
vn -0.3157 -0.2311 0.9203
vn 0.9728 -0.2311 -0.0158
vn 0.1042 -0.9842 0.1434
vn 0.5648 -0.2771 0.7773
vn 0.3883 -0.7507 0.5345
vn 0.6136 -0.7889 0.0329
vn -0.1583 -0.7889 0.5937
vn 0.9697 -0.2366 -0.0600
vn 0.7493 -0.2366 0.6186
vn 0.1099 -0.9933 0.0357
vn 0.9085 -0.2957 0.2952
vn 0.7953 -0.5483 0.2584
vn 0.5131 -0.8030 0.3032
vn 0.5933 -0.8030 0.0563
vn 0.7777 -0.2311 0.5846
vn 0.2856 -0.2311 -0.9301
vn 0.1686 -0.9842 -0.0548
vn 0.9138 -0.2771 -0.2969
vn 0.6283 -0.7507 -0.2041
vn 0.2209 -0.7889 -0.5734
vn 0.5157 -0.7889 0.3340
vn 0.2426 -0.2366 -0.9408
vn 0.8198 -0.2366 -0.5214
vn 0.0679 -0.9933 -0.0935
vn 0.5615 -0.2957 -0.7728
vn 0.4915 -0.5483 -0.6765
vn 0.4470 -0.8030 -0.3943
vn 0.2369 -0.8030 -0.5469
vn -0.9697 0.2366 -0.0600
vn -0.7493 0.2366 0.6186
vn -0.1099 0.9933 0.0357
vn -0.9085 0.2957 0.2952
vn -0.7953 0.5483 0.2584
vn -0.5131 0.8030 0.3032
vn -0.5933 0.8030 0.0563
vn -0.7777 0.2311 0.5846
vn -0.2856 0.2311 -0.9301
vn -0.1686 0.9842 -0.0548
vn -0.9138 0.2771 -0.2969
vn -0.6283 0.7507 -0.2041
vn -0.2209 0.7889 -0.5734
vn -0.5157 0.7889 0.3340
vn -0.2426 0.2366 -0.9408
vn -0.8198 0.2366 -0.5214
vn -0.0679 0.9933 -0.0935
vn -0.5615 0.2957 -0.7728
vn -0.4915 0.5483 -0.6765
vn -0.4470 0.8030 -0.3943
vn -0.2369 0.8030 -0.5469
vn -0.7963 0.2311 -0.5590
vn 0.7963 0.2311 -0.5590
vn -0.0000 0.9842 -0.1773
vn -0.0000 0.2771 -0.9608
vn -0.0000 0.7507 -0.6606
vn 0.4770 0.7889 -0.3873
vn -0.4770 0.7889 -0.3873
vn -0.9728 0.2311 -0.0158
vn -0.1042 0.9842 0.1434
vn 0.3157 0.2311 0.9203
vn -0.6136 0.7889 0.0329
vn -0.3883 0.7507 0.5345
vn 0.1583 0.7889 0.5937
vn -0.5648 0.2771 0.7773
vn 0.3568 0.2366 0.9037
vn -0.0000 0.9933 0.1155
vn -0.3568 0.2366 0.9037
vn 0.1298 0.8030 0.5817
vn -0.0000 0.5483 0.8363
vn -0.1298 0.8030 0.5817
vn -0.0000 0.2957 0.9553
vn -0.3157 0.2311 0.9203
vn 0.1042 0.9842 0.1434
vn 0.9728 0.2311 -0.0158
vn -0.1583 0.7889 0.5937
vn 0.3883 0.7507 0.5345
vn 0.6136 0.7889 0.0329
vn 0.5648 0.2771 0.7773
vn 0.9697 0.2366 -0.0600
vn 0.1099 0.9933 0.0357
vn 0.7493 0.2366 0.6186
vn 0.5933 0.8030 0.0563
vn 0.7953 0.5483 0.2584
vn 0.5131 0.8030 0.3032
vn 0.9085 0.2957 0.2952
vn 0.7777 0.2311 0.5846
vn 0.1686 0.9842 -0.0548
vn 0.2856 0.2311 -0.9301
vn 0.5157 0.7889 0.3340
vn 0.6283 0.7507 -0.2041
vn 0.2209 0.7889 -0.5734
vn 0.9138 0.2771 -0.2969
vn 0.2426 0.2366 -0.9408
vn 0.0679 0.9933 -0.0935
vn 0.8198 0.2366 -0.5214
vn 0.2369 0.8030 -0.5469
vn 0.4915 0.5483 -0.6765
vn 0.4470 0.8030 -0.3943
vn 0.5615 0.2957 -0.7728
vt 0.611196 0.722490
vt 0.611196 0.620307
vt 0.553629 0.620307
vt 0.718455 0.670435
vt 0.776022 0.670435
vt 0.776022 0.569728
vt 0.276022 0.803761
vt 0.276022 0.745091
vt 0.218455 0.745091
vt 0.111196 0.828486
vt 0.111196 0.727684
vt 0.053629 0.727684
vt 0.111196 0.572151
vt 0.053629 0.572151
vt 0.053629 0.652888
vt 0.696985 0.205756
vt 0.583677 0.261677
vt 0.696985 0.317598
vt 0.715155 0.442642
vt 0.803354 0.352159
vt 0.803354 0.171194
vt 0.715155 0.080712
vt 0.869093 0.261677
vt 0.927893 0.149834
vt 0.776022 0.770933
vt 0.718455 0.770933
vt 0.718455 0.862278
vt 0.130907 0.261677
vt 0.226046 0.261677
vt 0.196646 0.171194
vt 0.927893 0.373519
vt 0.303015 0.205756
vt 0.303015 0.317598
vt 0.440847 0.887763
vt 0.440847 0.796419
vt 0.383280 0.796419
vt 0.548105 0.831005
vt 0.548105 0.919487
vt 0.605672 0.919487
vt 0.276022 0.677744
vt 0.276022 0.572957
vt 0.218455 0.572957
vt 0.072107 0.373519
vt 0.196646 0.352159
vt 0.440847 0.722490
vt 0.440847 0.750219
vt 0.465774 0.735883
vt 0.049761 0.406456
vt 0.033877 0.384594
vt 0.141726 0.575792
vt 0.136123 0.554002
vt 0.440847 0.581237
vt 0.440847 0.620307
vt 0.471376 0.590994
vt 0.471376 0.562108
vt 0.440847 0.546453
vt 0.088557 0.276624
vt 0.088557 0.246730
vt 0.855225 0.799375
vt 0.852751 0.829905
vt 0.873679 0.824302
vt 0.611196 0.750219
vt 0.636123 0.735883
vt 0.033877 0.138759
vt 0.072107 0.149834
vt 0.049761 0.116898
vt 0.611196 0.581237
vt 0.641726 0.590994
vt 0.641726 0.562108
vt 0.611196 0.546453
vt 0.169344 0.135536
vt 0.197775 0.126299
vt 0.855225 0.634550
vt 0.852751 0.665079
vt 0.873679 0.659477
vt 0.718455 0.569728
vt 0.718455 0.546453
vt 0.693527 0.564628
vt 0.283564 0.040930
vt 0.284845 0.080712
vt 0.309264 0.049281
vt 0.718455 0.703785
vt 0.687925 0.705584
vt 0.806551 0.897185
vt 0.776022 0.862278
vt 0.776022 0.890034
vt 0.328490 0.168771
vt 0.346062 0.192955
vt 0.806551 0.792604
vt 0.800949 0.770225
vt 0.276022 0.825428
vt 0.300949 0.822928
vt 0.453762 0.248166
vt 0.416323 0.261677
vt 0.453762 0.275188
vt 0.276022 0.715353
vt 0.306551 0.737128
vt 0.306551 0.710788
vt 0.346062 0.330398
vt 0.328490 0.354583
vt 0.306551 0.589795
vt 0.300949 0.563083
vt 0.111196 0.856288
vt 0.136123 0.842591
vt 0.309264 0.474073
vt 0.284845 0.442642
vt 0.283564 0.482423
vt 0.111196 0.688574
vt 0.141726 0.699457
vt 0.141726 0.670203
vt 0.111196 0.652888
vt 0.197775 0.397055
vt 0.169344 0.387817
vt 0.553629 0.581237
vt 0.553629 0.546453
vt 0.523100 0.562108
vt 0.523100 0.590994
vt 0.830656 0.387817
vt 0.802226 0.397055
vt 0.553629 0.722490
vt 0.523100 0.709404
vt 0.528702 0.735883
vt 0.855225 0.741808
vt 0.880321 0.741808
vt 0.873679 0.716881
vt 0.716436 0.482423
vt 0.690736 0.474073
vt 0.383280 0.581237
vt 0.383280 0.546453
vt 0.352751 0.562108
vt 0.352751 0.590994
vt 0.383280 0.620307
vt 0.671510 0.354583
vt 0.653939 0.330398
vt 0.383280 0.722490
vt 0.352751 0.709404
vt 0.358353 0.735883
vt 0.053629 0.546453
vt 0.028702 0.554002
vt 0.546238 0.275188
vt 0.546238 0.248166
vt 0.855225 0.576983
vt 0.880321 0.576983
vt 0.873679 0.552056
vt 0.966123 0.384594
vt 0.950239 0.406456
vt 0.806551 0.589797
vt 0.800949 0.564628
vt 0.806551 0.705584
vt 0.776022 0.703785
vt 0.911443 0.246730
vt 0.911443 0.276624
vt 0.718455 0.890034
vt 0.687925 0.897185
vt 0.718455 0.751784
vt 0.693528 0.770225
vt 0.950239 0.116898
vt 0.966123 0.138759
vt 0.218455 0.803761
vt 0.187925 0.806409
vt 0.193527 0.822928
vt 0.187925 0.737128
vt 0.218455 0.715353
vt 0.802226 0.126299
vt 0.830656 0.135536
vt 0.218455 0.677744
vt 0.187925 0.710788
vt 0.218455 0.546453
vt 0.193527 0.563083
vt 0.690736 0.049281
vt 0.716436 0.040930
vt 0.053629 0.828486
vt 0.023100 0.816368
vt 0.028702 0.842591
vt 0.023100 0.699457
vt 0.053629 0.688574
vt 0.653939 0.192955
vt 0.671510 0.168771
vt 0.023100 0.670203
vt 0.471376 0.709404
vt 0.517576 0.897611
vt 0.641726 0.709404
vt 0.471376 0.818090
vt 0.687925 0.589797
vt 0.306551 0.806409
vt 0.141726 0.816368
vt 0.383280 0.887763
vt 0.352751 0.818090
vt 0.605672 0.831005
vt 0.636202 0.897611
vt 0.687925 0.792604
vt 0.187925 0.589795
vt 0.023100 0.575792
vt 0.880321 0.634550
vt 0.553629 0.750219
vt 0.276022 0.546453
vt 0.218455 0.825428
vt 0.383280 0.750219
vt 0.111196 0.546453
vt 0.773955 0.261677
vt 0.023100 0.409125
vt 0.465775 0.578045
vt 0.082755 0.261677
vt 0.880321 0.799375
vt 0.023100 0.114228
vt 0.636124 0.578045
vt 0.181766 0.125400
vt 0.303564 0.023100
vt 0.852751 0.876104
vt 0.852751 0.914569
vt 0.859656 0.902219
vt 0.196273 0.910083
vt 0.196273 0.871628
vt 0.187925 0.896633
vt 0.341970 0.177453
vt 0.776022 0.751784
vt 0.476900 0.261677
vt 0.300949 0.721214
vt 0.341970 0.345901
vt 0.303564 0.500254
vt 0.136124 0.686024
vt 0.181766 0.397954
vt 0.528702 0.578045
vt 0.818234 0.397954
vt 0.852751 0.711279
vt 0.696436 0.500254
vt 0.358352 0.578045
vt 0.658030 0.345901
vt 0.523100 0.261677
vt 0.852751 0.546453
vt 0.976900 0.409126
vt 0.776022 0.546453
vt 0.297021 0.871628
vt 0.297021 0.910093
vt 0.303926 0.883978
vt 0.917245 0.261677
vt 0.250821 0.910083
vt 0.250821 0.871628
vt 0.242473 0.885078
vt 0.976900 0.114228
vt 0.193527 0.721214
vt 0.818234 0.125400
vt 0.696436 0.023100
vt 0.053629 0.856288
vt 0.028702 0.686024
vt 0.658030 0.177453
vt 0.517576 0.796419
vt 0.471376 0.922671
vt 0.352751 0.922671
vt 0.636202 0.796419
s 1
usemtl Material
f 18/1/18 24/2/24 74/3/74
f 38/4/38 108/5/108 103/6/103
f 46/7/46 52/8/52 122/9/122
f 60/10/60 66/11/66 136/12/136
f 5/13/5 95/14/95 138/15/138
f 137/16/137 96/17/96 89/18/89
f 89/18/89 82/19/82 75/20/75
f 123/21/123 130/22/130 137/16/137
f 109/23/109 116/24/116 123/21/123
f 45/25/45 115/26/115 110/27/110
f 12/28/12 1/29/1 26/30/26
f 75/20/75 102/31/102 109/23/109
f 40/32/40 1/29/1 54/33/54
f 25/34/25 31/35/31 101/36/101
f 11/37/11 17/38/17 81/39/81
f 53/40/53 59/41/59 129/42/129
f 26/30/26 1/29/1 40/32/40
f 12/28/12 4/43/4 68/44/68
f 54/33/54 1/29/1 68/44/68
f 8/48/8 4/43/4 6/49/6
f 16/57/16 12/28/12 15/58/15
f 23/64/23 19/65/19 22/66/22
f 30/71/30 26/30/26 29/72/29
f 37/79/37 33/80/33 36/81/36
f 44/87/44 40/32/40 43/88/43
f 51/93/51 47/94/47 50/95/50
f 58/99/58 54/33/54 57/100/57
f 65/105/65 61/106/61 64/107/64
f 72/112/72 68/44/68 71/113/71
f 79/118/79 75/20/75 78/119/78
f 86/126/86 82/19/82 85/127/85
f 93/133/93 89/18/89 92/134/92
f 100/140/100 96/17/96 99/141/99
f 106/145/106 102/31/102 104/146/104
f 113/151/113 109/23/109 111/152/111
f 120/157/120 116/24/116 118/158/118
f 127/164/127 123/21/123 125/165/125
f 134/170/134 130/22/130 132/171/132
f 141/177/141 137/16/137 139/178/139
f 4/43/4 12/28/12 16/57/16
f 19/65/19 23/64/23 15/58/15
f 19/65/19 26/30/26 30/71/30
f 33/80/33 37/79/37 29/72/29
f 33/80/33 40/32/40 44/87/44
f 47/94/47 51/93/51 43/88/43
f 47/94/47 54/33/54 58/99/58
f 61/106/61 65/105/65 57/100/57
f 61/106/61 68/44/68 72/112/72
f 4/43/4 8/48/8 71/113/71
f 79/118/79 104/146/104 102/31/102
f 78/119/78 75/20/75 82/19/82
f 93/133/93 85/127/85 82/19/82
f 92/134/92 89/18/89 96/17/96
f 111/152/111 109/23/109 102/31/102
f 113/151/113 118/158/118 116/24/116
f 125/165/125 123/21/123 116/24/116
f 127/164/127 132/171/132 130/22/130
f 139/178/139 137/16/137 130/22/130
f 141/177/141 99/141/99 96/17/96
f 101/142/101 31/73/31 34/194/34
f 34/77/34 32/76/32 103/6/103
f 110/27/110 114/153/114 41/86/41
f 114/150/114 108/5/108 38/4/38
f 88/132/88 10/53/10 13/52/13
f 13/52/13 11/56/11 87/129/87
f 18/1/18 80/120/80 83/195/83
f 83/124/83 81/123/81 17/59/17
f 129/42/129 59/41/59 62/196/62
f 62/103/62 60/10/60 131/172/131
f 67/111/67 138/15/138 142/176/142
f 69/108/69 142/176/142 136/12/136
f 117/159/117 121/197/121 48/91/48
f 121/155/121 115/26/115 45/25/45
f 25/70/25 73/115/73 76/114/76
f 27/67/27 76/114/76 74/3/74
f 94/135/94 97/198/97 9/46/9
f 9/199/9 97/138/97 95/14/95
f 53/40/53 124/166/124 128/163/128
f 55/96/55 128/163/128 122/9/122
f 10/53/10 88/132/88 94/135/94
f 18/1/18 74/3/74 80/120/80
f 38/4/38 103/6/103 32/76/32
f 46/7/46 122/9/122 117/159/117
f 60/10/60 136/12/136 131/172/131
f 5/13/5 138/15/138 67/111/67
f 137/16/137 89/18/89 2/200/2
f 89/18/89 75/20/75 2/200/2
f 123/21/123 137/16/137 2/200/2
f 109/23/109 123/21/123 2/200/2
f 45/25/45 110/27/110 39/85/39
f 12/28/12 26/30/26 19/65/19
f 75/20/75 109/23/109 2/200/2
f 40/32/40 54/33/54 47/94/47
f 25/34/25 101/36/101 73/187/73
f 11/37/11 81/39/81 87/189/87
f 53/40/53 129/42/129 124/166/124
f 26/30/26 40/32/40 33/80/33
f 12/28/12 68/44/68 1/29/1
f 54/33/54 68/44/68 61/106/61
f 8/48/8 6/49/6 7/201/7
f 23/64/23 22/66/22 21/205/21
f 37/79/37 36/81/36 35/208/35
f 51/93/51 50/95/50 49/217/49
f 65/105/65 64/107/64 63/220/63
f 86/126/86 85/127/85 84/226/84
f 100/140/100 99/141/99 98/229/98
f 106/145/106 104/146/104 105/231/105
f 120/157/120 118/158/118 119/240/119
f 134/170/134 132/171/132 133/243/133
f 4/43/4 16/57/16 6/49/6
f 19/65/19 15/58/15 12/28/12
f 19/65/19 30/71/30 22/66/22
f 33/80/33 29/72/29 26/30/26
f 33/80/33 44/87/44 36/81/36
f 47/94/47 43/88/43 40/32/40
f 47/94/47 58/99/58 50/95/50
f 61/106/61 57/100/57 54/33/54
f 61/106/61 72/112/72 64/107/64
f 4/43/4 71/113/71 68/44/68
f 79/118/79 102/31/102 75/20/75
f 78/119/78 82/19/82 86/126/86
f 93/133/93 82/19/82 89/18/89
f 92/134/92 96/17/96 100/140/100
f 111/152/111 102/31/102 106/145/106
f 113/151/113 116/24/116 109/23/109
f 125/165/125 116/24/116 120/157/120
f 127/164/127 130/22/130 123/21/123
f 139/178/139 130/22/130 134/170/134
f 141/177/141 96/17/96 137/16/137
f 101/142/101 34/194/34 107/143/107
f 34/77/34 103/6/103 107/232/107
f 110/27/110 41/86/41 39/85/39
f 114/150/114 38/4/38 41/82/41
f 88/132/88 13/52/13 90/128/90
f 13/52/13 87/129/87 90/128/90
f 18/1/18 83/195/83 20/62/20
f 83/124/83 17/59/17 20/204/20
f 129/42/129 62/196/62 135/168/135
f 62/103/62 131/172/131 135/244/135
f 67/111/67 142/176/142 69/108/69
f 69/108/69 136/12/136 66/11/66
f 117/159/117 48/91/48 46/7/46
f 121/155/121 45/25/45 48/216/48
f 25/70/25 76/114/76 27/67/27
f 27/67/27 74/3/74 24/2/24
f 94/135/94 9/46/9 3/45/3
f 9/199/9 95/14/95 5/13/5
f 53/40/53 128/163/128 55/96/55
f 55/96/55 122/9/122 52/8/52
f 10/53/10 94/135/94 3/45/3
usemtl Outline
f 3/45/3 9/46/9 7/47/7
f 5/13/5 8/50/8 7/51/7
f 13/52/13 10/53/10 16/54/16
f 15/55/15 11/56/11 13/52/13
f 17/59/17 23/60/23 21/61/21
f 18/1/18 20/62/20 21/63/21
f 27/67/27 24/2/24 30/68/30
f 29/69/29 25/70/25 27/67/27
f 31/73/31 37/74/37 35/75/35
f 32/76/32 34/77/34 35/78/35
f 41/82/41 38/4/38 44/83/44
f 43/84/43 39/85/39 41/86/41
f 45/25/45 51/89/51 49/90/49
f 46/7/46 48/91/48 49/92/49
f 55/96/55 52/8/52 58/97/58
f 57/98/57 53/40/53 55/96/55
f 59/41/59 65/101/65 63/102/63
f 60/10/60 62/103/62 63/104/63
f 69/108/69 66/11/66 72/109/72
f 71/110/71 67/111/67 69/108/69
f 76/114/76 73/115/73 79/116/79
f 78/117/78 74/3/74 76/114/76
f 80/120/80 86/121/86 84/122/84
f 81/123/81 83/124/83 84/125/84
f 90/128/90 87/129/87 93/130/93
f 92/131/92 88/132/88 90/128/90
f 94/135/94 100/136/100 98/137/98
f 95/14/95 97/138/97 98/139/98
f 101/142/101 107/143/107 105/144/105
f 103/6/103 106/147/106 105/148/105
f 111/149/111 108/5/108 114/150/114
f 114/153/114 110/27/110 113/154/113
f 115/26/115 121/155/121 119/156/119
f 117/159/117 120/160/120 119/161/119
f 125/162/125 122/9/122 128/163/128
f 128/163/128 124/166/124 127/167/127
f 129/42/129 135/168/135 133/169/133
f 131/172/131 134/173/134 133/174/133
f 139/175/139 136/12/136 142/176/142
f 142/176/142 138/15/138 141/179/141
f 6/180/6 16/54/16 10/53/10
f 23/181/23 17/38/17 11/37/11
f 22/182/22 30/68/30 24/2/24
f 37/183/37 31/35/31 25/34/25
f 36/184/36 44/83/44 38/4/38
f 51/89/51 45/25/45 39/85/39
f 50/185/50 58/97/58 52/8/52
f 65/101/65 59/41/59 53/40/53
f 64/186/64 72/109/72 66/11/66
f 8/50/8 5/13/5 67/111/67
f 73/187/73 101/36/101 104/188/104
f 74/3/74 78/117/78 86/121/86
f 87/189/87 81/39/81 85/190/85
f 88/132/88 92/131/92 100/136/100
f 108/5/108 111/149/111 106/147/106
f 110/27/110 115/26/115 118/191/118
f 122/9/122 125/162/125 120/160/120
f 124/166/124 129/42/129 132/192/132
f 136/12/136 139/175/139 134/173/134
f 138/15/138 95/14/95 99/193/99
f 3/45/3 7/47/7 6/180/6
f 5/13/5 7/51/7 9/199/9
f 13/52/13 16/54/16 14/202/14
f 15/55/15 13/52/13 14/202/14
f 16/57/16 15/58/15 14/203/14
f 17/59/17 21/61/21 20/204/20
f 18/1/18 21/63/21 22/182/22
f 27/67/27 30/68/30 28/206/28
f 29/69/29 27/67/27 28/206/28
f 30/71/30 29/72/29 28/207/28
f 31/73/31 35/75/35 34/194/34
f 32/76/32 35/78/35 36/184/36
f 41/209/41 44/210/44 42/211/42
f 43/212/43 41/213/41 42/214/42
f 44/87/44 43/88/43 42/215/42
f 45/25/45 49/90/49 48/216/48
f 46/7/46 49/92/49 50/185/50
f 55/96/55 58/97/58 56/218/56
f 57/98/57 55/96/55 56/218/56
f 58/99/58 57/100/57 56/219/56
f 59/41/59 63/102/63 62/196/62
f 60/10/60 63/104/63 64/186/64
f 69/108/69 72/109/72 70/221/70
f 71/110/71 69/108/69 70/221/70
f 72/112/72 71/113/71 70/222/70
f 76/114/76 79/116/79 77/223/77
f 78/117/78 76/114/76 77/223/77
f 79/118/79 78/119/78 77/224/77
f 80/120/80 84/122/84 83/195/83
f 81/123/81 84/125/84 85/225/85
f 90/128/90 93/130/93 91/227/91
f 92/131/92 90/128/90 91/227/91
f 93/133/93 92/134/92 91/228/91
f 94/135/94 98/137/98 97/198/97
f 95/14/95 98/139/98 99/193/99
f 101/142/101 105/144/105 104/230/104
f 103/6/103 105/148/105 107/232/107
f 111/233/111 114/234/114 112/235/112
f 113/151/113 111/152/111 112/236/112
f 114/237/114 113/238/113 112/239/112
f 115/26/115 119/156/119 118/191/118
f 117/159/117 119/161/119 121/197/121
f 125/162/125 128/163/128 126/241/126
f 127/164/127 125/165/125 126/242/126
f 128/163/128 127/167/127 126/241/126
f 129/42/129 133/169/133 132/192/132
f 131/172/131 133/174/133 135/244/135
f 139/175/139 142/176/142 140/245/140
f 141/177/141 139/178/139 140/246/140
f 142/176/142 141/179/141 140/245/140
f 6/180/6 10/53/10 3/45/3
f 23/181/23 11/37/11 15/247/15
f 22/182/22 24/2/24 18/1/18
f 37/183/37 25/34/25 29/248/29
f 36/184/36 38/4/38 32/76/32
f 51/89/51 39/85/39 43/84/43
f 50/185/50 52/8/52 46/7/46
f 65/101/65 53/40/53 57/98/57
f 64/186/64 66/11/66 60/10/60
f 8/50/8 67/111/67 71/110/71
f 73/187/73 104/188/104 79/249/79
f 74/3/74 86/121/86 80/120/80
f 87/189/87 85/190/85 93/250/93
f 88/132/88 100/136/100 94/135/94
f 108/5/108 106/147/106 103/6/103
f 110/27/110 118/191/118 113/154/113
f 122/9/122 120/160/120 117/159/117
f 124/166/124 132/192/132 127/167/127
f 136/12/136 134/173/134 131/172/131
f 138/15/138 99/193/99 141/179/141
