# Blender 4.2.1 LTS
# www.blender.org
mtllib Tetrahedron.mtl
o Solid
v -0.601781 0.297906 0.000000
v 0.300891 0.297906 0.521158
v 0.300890 0.297906 -0.521158
v 0.381165 0.184380 0.521158
v 0.080275 -0.666667 0.000000
v 0.381165 0.184380 -0.521158
v -0.641918 0.184380 -0.069520
v 0.260753 0.184380 -0.590678
v -0.040137 -0.666667 -0.069520
v 0.260753 0.184380 0.590678
v -0.641918 0.184380 0.069520
v -0.040137 -0.666667 0.069520
vn -0.5774 0.8165 -0.0000
vn 0.2887 0.8165 0.5000
vn 0.2887 0.8165 -0.5000
vn 0.8660 -0.0000 0.5000
vn 0.5774 -0.8165 -0.0000
vn 0.8660 -0.0000 -0.5000
vn -0.8660 -0.0000 -0.5000
vn -0.0000 -0.0000 -1.0000
vn -0.2887 -0.8165 -0.5000
vn -0.0000 -0.0000 1.0000
vn -0.8660 -0.0000 0.5000
vn -0.2887 -0.8165 0.5000
vt 0.000349 0.000349
vt 0.176632 0.176632
vt 0.000349 0.352915
vt 0.177330 0.000349
vt 0.353613 0.176632
vt 0.177330 0.352915
vt 0.354311 0.000349
vt 0.530594 0.176632
vt 0.354311 0.352915
vt 0.000349 0.353613
vt 0.176632 0.529896
vt 0.000349 0.706179
vt 0.177330 0.353613
vt 0.353613 0.529896
vt 0.177330 0.706179
vt 0.354311 0.353613
vt 0.530594 0.529896
vt 0.354311 0.706179
vt 0.531292 0.000349
vt 0.707576 0.176632
vt 0.531292 0.352915
vt 0.000349 0.956179
vt 0.249651 0.706877
vt 0.249651 0.956179
vt 0.250349 0.706877
vt 0.499651 0.956179
vt 0.250349 0.956179
vt 0.500349 0.706877
vt 0.749651 0.956179
vt 0.500349 0.956179
vt 0.708274 0.000349
vt 0.957576 0.249651
vt 0.708274 0.249651
vt 0.708274 0.499651
vt 0.957576 0.250349
vt 0.957576 0.499651
vt 0.750349 0.706878
vt 0.999651 0.956179
vt 0.750349 0.956179
vt 0.531292 0.353613
vt 0.707576 0.529896
vt 0.531292 0.706179
vt 0.000349 0.706878
vt 0.499651 0.706877
vt 0.749651 0.706877
vt 0.957576 0.000349
vt 0.708274 0.250349
vt 0.999651 0.706878
s 1
usemtl Material
f 1/10/1 2/11/2 3/12/3
f 4/13/4 5/14/5 6/15/6
f 7/16/7 8/17/8 9/18/9
f 10/19/10 11/20/11 12/21/12
usemtl Outline
f 2/1/2 10/2/10 4/3/4
f 3/4/3 6/5/6 8/6/8
f 5/7/5 12/8/12 9/9/9
f 3/22/3 7/23/7 1/24/1
f 4/25/4 3/26/3 2/27/2
f 9/28/9 6/29/6 5/30/5
f 11/31/11 2/32/2 1/33/1
f 9/34/9 11/35/11 7/36/7
f 10/37/10 5/38/5 4/39/4
f 1/40/1 7/41/7 11/42/11
f 3/22/3 8/43/8 7/23/7
f 4/25/4 6/44/6 3/26/3
f 9/28/9 8/45/8 6/29/6
f 11/31/11 10/46/10 2/32/2
f 9/34/9 12/47/12 11/35/11
f 10/37/10 12/48/12 5/38/5
