# Blender 4.2.1 LTS
# www.blender.org
mtllib Thread.mtl
o Circle
v -0.000000 10.000000 0.000000
v 0.000000 9.750000 -1.000000
v -0.000000 10.000000 -0.741181
v -0.370590 10.000000 -0.641882
v -0.500000 9.750000 -0.866025
v -0.641882 10.000000 -0.370590
v -0.866025 9.750000 -0.500000
v -0.741181 10.000000 0.000000
v -1.000000 9.750000 0.000000
v -0.641882 10.000000 0.370590
v -0.866025 9.750000 0.500000
v -0.370590 10.000000 0.641882
v -0.500000 9.750000 0.866025
v -0.000000 10.000000 0.741181
v 0.000000 9.750000 1.000000
v 0.370590 10.000000 0.641882
v 0.500000 9.750000 0.866025
v 0.641882 10.000000 0.370590
v 0.866025 9.750000 0.500000
v 0.741181 10.000000 0.000000
v 1.000000 9.750000 0.000000
v 0.641882 10.000000 -0.370590
v 0.866025 9.750000 -0.500000
v 0.370590 10.000000 -0.641882
v 0.500000 9.750000 -0.866025
v -0.000000 -10.000000 0.000000
v 0.000000 -9.750000 -1.000000
v -0.000000 -10.000000 -0.741181
v -0.370590 -10.000000 -0.641882
v -0.500000 -9.750000 -0.866025
v -0.641882 -10.000000 -0.370590
v -0.866025 -9.750000 -0.500000
v -0.741181 -10.000000 0.000000
v -1.000000 -9.750000 0.000000
v -0.641882 -10.000000 0.370590
v -0.866025 -9.750000 0.500000
v -0.370590 -10.000000 0.641882
v -0.500000 -9.750000 0.866025
v -0.000000 -10.000000 0.741181
v 0.000000 -9.750000 1.000000
v 0.370590 -10.000000 0.641882
v 0.500000 -9.750000 0.866025
v 0.641882 -10.000000 0.370590
v 0.866025 -9.750000 0.500000
v 0.741181 -10.000000 0.000000
v 1.000000 -9.750000 0.000000
v 0.641882 -10.000000 -0.370590
v 0.866025 -9.750000 -0.500000
v 0.370590 -10.000000 -0.641882
v 0.500000 -9.750000 -0.866025
vn -0.0000 -1.0000 -0.0000
vn -0.2588 -0.0000 -0.9659
vn 0.9659 -0.0000 -0.2588
vn -0.7071 -0.0000 0.7071
vn -0.7071 -0.0000 -0.7071
vn 0.7071 -0.0000 -0.7071
vn -0.2588 -0.0000 0.9659
vn 0.7071 -0.0000 0.7071
vn -0.9659 -0.0000 -0.2588
vn 0.2588 -0.0000 -0.9659
vn 0.9659 -0.0000 0.2588
vn -0.9659 -0.0000 0.2588
vn 0.1830 -0.7071 0.6830
vn 0.5000 -0.7071 0.5000
vn 0.6830 -0.7071 0.1830
vn 0.6830 -0.7071 -0.1830
vn 0.5000 -0.7071 -0.5000
vn 0.1830 -0.7071 -0.6830
vn -0.1830 -0.7071 -0.6830
vn -0.5000 -0.7071 -0.5000
vn -0.6830 -0.7071 -0.1830
vn -0.6830 -0.7071 0.1830
vn -0.5000 -0.7071 0.5000
vn -0.1830 -0.7071 0.6830
vn -0.0000 1.0000 -0.0000
vn 0.1830 0.7071 0.6830
vn 0.5000 0.7071 0.5000
vn 0.6830 0.7071 0.1830
vn 0.6830 0.7071 -0.1830
vn 0.5000 0.7071 -0.5000
vn 0.1830 0.7071 -0.6830
vn -0.1830 0.7071 -0.6830
vn -0.5000 0.7071 -0.5000
vn -0.6830 0.7071 -0.1830
vn -0.6830 0.7071 0.1830
vn -0.5000 0.7071 0.5000
vn -0.1830 0.7071 0.6830
vn 0.2588 -0.0000 0.9659
vt 0.000000 0.000000
s 0
f 12/1/1 10/1/1 1/1/1
f 3/1/1 24/1/1 1/1/1
f 20/1/1 18/1/1 1/1/1
f 14/1/1 12/1/1 1/1/1
f 6/1/1 4/1/1 1/1/1
f 8/1/1 6/1/1 1/1/1
f 22/1/1 20/1/1 1/1/1
f 16/1/1 14/1/1 1/1/1
f 10/1/1 8/1/1 1/1/1
f 24/1/1 22/1/1 1/1/1
f 18/1/1 16/1/1 1/1/1
f 42/1/2 15/1/2 17/1/2
f 36/1/3 9/1/3 11/1/3
f 50/1/4 23/1/4 25/1/4
f 44/1/5 17/1/5 19/1/5
f 38/1/6 11/1/6 13/1/6
f 27/1/7 25/1/7 2/1/7
f 32/1/8 5/1/8 7/1/8
f 46/1/9 19/1/9 21/1/9
f 40/1/10 13/1/10 15/1/10
f 34/1/11 7/1/11 9/1/11
f 48/1/12 21/1/12 23/1/12
f 2/1/13 4/1/13 5/1/13
f 5/1/14 6/1/14 7/1/14
f 7/1/15 8/1/15 9/1/15
f 9/1/16 10/1/16 11/1/16
f 11/1/17 12/1/17 13/1/17
f 13/1/18 14/1/18 15/1/18
f 15/1/19 16/1/19 17/1/19
f 17/1/20 18/1/20 19/1/20
f 19/1/21 20/1/21 21/1/21
f 21/1/22 22/1/22 23/1/22
f 23/1/23 24/1/23 25/1/23
f 25/1/24 3/1/24 2/1/24
f 4/1/1 3/1/1 1/1/1
f 37/1/25 26/1/25 35/1/25
f 28/1/25 26/1/25 49/1/25
f 45/1/25 26/1/25 43/1/25
f 39/1/25 26/1/25 37/1/25
f 31/1/25 26/1/25 29/1/25
f 33/1/25 26/1/25 31/1/25
f 47/1/25 26/1/25 45/1/25
f 41/1/25 26/1/25 39/1/25
f 35/1/25 26/1/25 33/1/25
f 49/1/25 26/1/25 47/1/25
f 43/1/25 26/1/25 41/1/25
f 29/1/26 27/1/26 30/1/26
f 31/1/27 30/1/27 32/1/27
f 33/1/28 32/1/28 34/1/28
f 35/1/29 34/1/29 36/1/29
f 37/1/30 36/1/30 38/1/30
f 39/1/31 38/1/31 40/1/31
f 41/1/32 40/1/32 42/1/32
f 43/1/33 42/1/33 44/1/33
f 45/1/34 44/1/34 46/1/34
f 47/1/35 46/1/35 48/1/35
f 49/1/36 48/1/36 50/1/36
f 28/1/37 50/1/37 27/1/37
f 29/1/25 26/1/25 28/1/25
f 30/1/38 2/1/38 5/1/38
f 42/1/2 40/1/2 15/1/2
f 36/1/3 34/1/3 9/1/3
f 50/1/4 48/1/4 23/1/4
f 44/1/5 42/1/5 17/1/5
f 38/1/6 36/1/6 11/1/6
f 27/1/7 50/1/7 25/1/7
f 32/1/8 30/1/8 5/1/8
f 46/1/9 44/1/9 19/1/9
f 40/1/10 38/1/10 13/1/10
f 34/1/11 32/1/11 7/1/11
f 48/1/12 46/1/12 21/1/12
f 2/1/13 3/1/13 4/1/13
f 5/1/14 4/1/14 6/1/14
f 7/1/15 6/1/15 8/1/15
f 9/1/16 8/1/16 10/1/16
f 11/1/17 10/1/17 12/1/17
f 13/1/18 12/1/18 14/1/18
f 15/1/19 14/1/19 16/1/19
f 17/1/20 16/1/20 18/1/20
f 19/1/21 18/1/21 20/1/21
f 21/1/22 20/1/22 22/1/22
f 23/1/23 22/1/23 24/1/23
f 25/1/24 24/1/24 3/1/24
f 29/1/26 28/1/26 27/1/26
f 31/1/27 29/1/27 30/1/27
f 33/1/28 31/1/28 32/1/28
f 35/1/29 33/1/29 34/1/29
f 37/1/30 35/1/30 36/1/30
f 39/1/31 37/1/31 38/1/31
f 41/1/32 39/1/32 40/1/32
f 43/1/33 41/1/33 42/1/33
f 45/1/34 43/1/34 44/1/34
f 47/1/35 45/1/35 46/1/35
f 49/1/36 47/1/36 48/1/36
f 28/1/37 49/1/37 50/1/37
f 30/1/38 27/1/38 2/1/38
